<?xml version="1.0" encoding="utf-8"?>
<!-- Generator: Adobe Illustrator 19.2.0, SVG Export Plug-In . SVG Version: 6.00 Build 0)  -->
<svg version="1.1" id="Layer_1" xmlns="http://www.w3.org/2000/svg" xmlns:xlink="http://www.w3.org/1999/xlink" x="0px" y="0px"
	 viewBox="0 0 490.9 350.6" style="enable-background:new 0 0 490.9 350.6;" xml:space="preserve">
<style type="text/css">
	.st0{fill:#1D2F5C;}
	.st1{fill:#3098D5;}
	.st2{fill:#1C305D;}
	.st3{fill:#31A3DC;}
</style>
<g id="XMLID_82_">
	<g id="XMLID_103_">
		<g id="XMLID_181_">
			<g id="XMLID_384_">
				<path id="XMLID_409_" class="st0" d="M17.1,257.9l-15.2,0l24.5-69l16.6,0l24.4,68.9l-15.7,0l-4.4-14.2l-25.5,0L17.1,257.9z
					 M25.7,231.8l17.6,0l-8.6-27.3h-0.2L25.7,231.8z"/>
				<path id="XMLID_407_" class="st0" d="M89.6,257.8l-14.1,0L57,206.8l15,0l10.6,37.6h0.2l10.8-37.7l14.3,0L89.6,257.8z"/>
				<path id="XMLID_404_" class="st0" d="M153.6,242.8c-3.5,12.3-13.7,16.3-22.5,16.4c-14.4,0-25.5-6.9-25.5-27.9
					c0-6.1,2.1-25.8,24.5-25.9c10.1,0,24,4.8,24,28.1l0,2.4l-35.1,0c0.4,3.8,1.2,12.5,12,12.5c3.7,0,7.6-1.9,8.6-5.6L153.6,242.8z
					 M140.4,227.1c-0.8-8.3-6.1-10.7-10.4-10.7c-6.3,0-9.7,4-10.5,10.8L140.4,227.1z"/>
				<path id="XMLID_402_" class="st0" d="M157.2,206.7l12.9,0l0,8.8h0.2c2.8-5.2,5.8-10.2,14-10.2c0.9,0,1.7,0.1,2.6,0.2l0,13.6
					c-1.2-0.2-2.6-0.2-3.8-0.2c-10.5,0-12.4,6.5-12.4,12.2l0,26.6l-13.4,0L157.2,206.7z"/>
				<path id="XMLID_399_" class="st0" d="M232.3,247.7c0,6.1,1.4,7.4,3,8l0,2l-14.5,0c-0.8-2.4-1-3.2-1.3-6
					c-3.1,3.2-7.4,7.4-16.5,7.4c-7.7,0-15.6-4.3-15.6-14.9c0-10,6.3-15.1,14.9-16.3l12.1-1.8c2.1-0.3,4.7-1.2,4.7-4
					c0-5.7-5.4-5.9-8.8-5.9c-6.7,0-7.9,4.1-8.3,7.1l-13,0c1.5-15.7,12.4-17.9,22.8-17.9c7.2,0,20.4,2.2,20.4,14.8L232.3,247.7z
					 M219.1,232.8c-1.3,1.1-3.6,1.9-9.1,2.8c-5,0.9-9.1,2.1-9.1,7.7c0,4.7,3.7,6.1,6.3,6.1c6,0,12-3.9,12-10.1L219.1,232.8z"/>
				<path id="XMLID_396_" class="st0" d="M286.3,206.5l0.1,48.4c0,8.8-0.6,23.5-25.8,23.6c-10.6,0-21.7-4.5-22.3-15.3l14.6,0
					c0.6,2.6,1.6,5.2,9.4,5.2c7.2,0,10.7-3.5,10.6-11.7l0-6.1l-0.2-0.2c-2.2,3.9-5.6,7.7-13.6,7.7c-12.3,0-22-8.5-22-26.4
					c0-17.7,10-26.3,21.2-26.3c9.5,0,13.4,5.6,15,8.9h0.2l0-7.6L286.3,206.5z M261.6,246.6c9.1,0,11.4-7.8,11.4-14.8
					c0-8.3-4.1-15-11.5-15c-5,0-10.6,3.7-10.5,15.6C250.9,238.9,253.6,246.6,261.6,246.6z"/>
				<path id="XMLID_393_" class="st0" d="M336.3,242.6c-3.5,12.3-13.7,16.3-22.5,16.4c-14.4,0-25.5-6.9-25.5-27.9
					c0-6.1,2.1-25.8,24.5-25.9c10.1,0,24,4.8,24,28.1l0,2.4l-35.1,0c0.4,3.8,1.2,12.5,12,12.5c3.7,0,7.6-1.9,8.6-5.6L336.3,242.6z
					 M323.1,226.9c-0.8-8.3-6.1-10.7-10.4-10.7c-6.3,0-9.7,4-10.5,10.8L323.1,226.9z"/>
				<path id="XMLID_391_" class="st0" d="M384.2,237.5c0,14.6-7.6,21.7-21.4,21.7c-23,0-23-14.6-23-27.7l13.4,0
					c0,10.9,0.8,16.1,8.5,16.1c7.5,0,8.1-4.8,8.1-10.1l-0.1-49l14.4,0L384.2,237.5z"/>
				<path id="XMLID_388_" class="st0" d="M412.8,258.8c-13.7,0-26.1-8.4-26.2-26.9c0-18.4,12.4-26.9,26.1-26.9
					c13.7,0,26.1,8.4,26.2,26.9C438.9,250.3,426.6,258.8,412.8,258.8z M412.8,216.3c-10.4,0-12.3,9-12.3,15.6
					c0,6.5,1.9,15.6,12.3,15.5c10.4,0,12.3-9,12.3-15.6C425.1,225.3,423.1,216.3,412.8,216.3z"/>
				<path id="XMLID_385_" class="st0" d="M488.4,242.4c-3.5,12.3-13.7,16.3-22.5,16.4c-14.4,0-25.5-6.9-25.5-27.9
					c0-6.1,2.1-25.8,24.5-25.9c10.1,0,24,4.8,24,28.1l0,2.4l-35.1,0c0.4,3.8,1.2,12.5,12,12.5c3.7,0,7.6-1.9,8.6-5.6L488.4,242.4z
					 M475.1,226.7c-0.8-8.3-6.1-10.7-10.4-10.7c-6.3,0-9.7,4-10.5,10.8L475.1,226.7z"/>
			</g>
		</g>
		<g id="XMLID_68_">
			<g id="XMLID_649_">
				<path id="XMLID_719_" class="st0" d="M2.9,338.8v1.2c0,1.9,0.1,3.7,2.4,3.7S8,341.9,8,340v-15.7h2.3v15.8c0,4.4-2,5.6-5,5.6
					c-1.6,0-3.2-0.5-4-2c-0.6-1.2-0.8-2.7-0.8-3.9c0-0.4,0-0.8,0-1.1H2.9z"/>
				<path id="XMLID_717_" class="st0" d="M25.5,343.3L25.5,343.3c-0.8,1.6-2.2,2.5-3.8,2.5c-2.3,0-3.8-1.2-3.8-4v-12h2.2v12.1
					c0,1.3,0.4,2,2,2c1.1,0,2-0.5,2.7-1.4c0.5-0.8,0.6-1.8,0.6-2.7v-10h2.2v15.6h-2.2V343.3z"/>
				<path id="XMLID_715_" class="st0" d="M41.6,333.9v-0.3c0-1.6-0.7-2.4-2.5-2.4c-1.6,0-2.5,0.7-2.5,2.4c0,2,1.7,2.3,3.2,2.9
					c2.2,1,4.5,1.6,4.5,4.5c0,2.9-2,4.8-5.2,4.8H39c-1.3,0-3-0.5-3.8-1.6c-0.8-1.1-0.9-2-0.9-3v-0.3h2.1v0.3c0,1.7,0.7,2.8,2.6,2.8
					c1.8,0,3-0.7,3-2.6c0-2.2-2.2-2.4-3.8-3.1c-2.4-0.9-3.8-1.7-3.8-4.4c0-2.7,1.9-4.4,4.6-4.4c3,0,4.8,1.3,4.8,4.5v0.1H41.6z"/>
				<path id="XMLID_713_" class="st0" d="M53.5,329.8h2.6v1.9h-2.6v11c0,0.4,0.1,0.8,1,0.8h1.5v1.9h-2.6c-1.2,0-2.1-0.3-2.1-2.5
					v-11.1h-2.2v-1.9h2.2v-4.2h2.2V329.8z"/>
				<path id="XMLID_710_" class="st0" d="M82.1,345.3c-0.2,0-0.3,0.1-0.5,0.1c-0.2,0-0.4,0-0.6,0c-1.4,0-2-0.4-2.2-2.2h-0.1
					c-0.5,1.4-2,2.5-3.4,2.5c-3.1,0-4-1.7-4-4.6c0-0.6,0.1-2.8,2.2-3.8c1.3-0.6,4.4-1.7,4.7-2c0.4-0.3,0.4-0.8,0.4-1.3v-0.4
					c0-1.8-0.7-2.4-2.5-2.4c-1.9,0-2.3,0.8-2.3,2.5v0.2h-2v-0.3c0-3,1.6-4.3,4.6-4.3c3.9,0,4.2,2.8,4.2,3.9v9.5c0,0.4,0,0.8,0.4,0.9
					c0.2,0,0.3,0.1,0.5,0.1s0.3,0,0.5,0V345.3z M78.5,336.9c-1.1,0.6-2.3,1.1-3.5,1.7c-1,0.5-1.4,1.6-1.4,2.7c0,1.6,0.4,2.6,2.2,2.6
					c0.8,0,2.7-0.6,2.7-3.2V336.9z"/>
				<path id="XMLID_708_" class="st0" d="M90.4,331.5L90.4,331.5c1.1-1.3,2.3-2.1,3.9-2.1c2.3,0,3.8,1.2,3.8,4v12H96v-11.4
					c0-1.6-0.5-2.7-2.3-2.7c-0.8,0-1.6,0.3-2.2,0.9c-0.9,0.8-1,1.7-1,2.8v10.4h-2.2v-15.6h2.2V331.5z"/>
				<path id="XMLID_705_" class="st0" d="M120.3,324.3h3.1l5.9,21h-2.6l-1.7-6h-6.6l-1.5,6h-2.6L120.3,324.3z M121.8,326L121.8,326
					l-2.8,11.2h5.5L121.8,326z"/>
				<path id="XMLID_703_" class="st0" d="M132.8,329.8h2.3l3.5,13.7h0.1l3.5-13.7h2.3l-4.7,15.6h-2.4L132.8,329.8z"/>
				<path id="XMLID_700_" class="st0" d="M159.1,340.2v0.4c0,2.9-1.6,5.2-4.7,5.2c-2.9,0-5-2-5-8.2c0-3.3,0.9-8.2,5-8.2
					c5,0,4.8,4.8,4.9,8.4h-7.6v1c0,2,0.2,5.2,2.8,5.2c1.9,0,2.6-1.6,2.6-3.2c0-0.1,0-0.3,0-0.5H159.1z M157,335.9
					c-0.1-1.8,0-4.7-2.5-4.7c-2.6,0-2.6,2.9-2.7,4.7H157z"/>
				<path id="XMLID_698_" class="st0" d="M168.4,332.3L168.4,332.3c0.9-1.8,2.1-2.7,4-2.7c0.2,0,0.4,0,0.6,0v2.2
					c-0.3-0.1-0.6-0.1-0.9-0.1c-2.3,0-3.6,1.7-3.6,4.2v9.4h-2.2v-15.6h2.1V332.3z"/>
				<path id="XMLID_695_" class="st0" d="M188.3,345.3c-0.2,0-0.3,0.1-0.5,0.1c-0.2,0-0.4,0-0.6,0c-1.4,0-2-0.4-2.2-2.2H185
					c-0.5,1.4-2,2.5-3.4,2.5c-3.1,0-4-1.7-4-4.6c0-0.6,0.1-2.8,2.2-3.8c1.3-0.6,4.4-1.7,4.7-2c0.4-0.3,0.4-0.8,0.4-1.3v-0.4
					c0-1.8-0.7-2.4-2.5-2.4c-1.9,0-2.3,0.8-2.3,2.5v0.2h-2v-0.3c0-3,1.6-4.3,4.6-4.3c3.9,0,4.2,2.8,4.2,3.9v9.5c0,0.4,0,0.8,0.4,0.9
					c0.2,0,0.3,0.1,0.5,0.1c0.2,0,0.3,0,0.5,0V345.3z M184.7,336.9c-1.1,0.6-2.3,1.1-3.5,1.7c-1,0.5-1.4,1.6-1.4,2.7
					c0,1.6,0.4,2.6,2.2,2.6c0.8,0,2.7-0.6,2.7-3.2V336.9z"/>
				<path id="XMLID_692_" class="st0" d="M202.2,329.8h2.2v13.7c0,1.9-0.1,3.4-1.2,5c-1,1.5-2.6,2.2-4.3,2.2c-2.5,0-4.3-1.1-4.6-3.8
					h2.2c0.2,1.4,1.1,1.9,2.4,1.9c3.1,0,3.2-2.7,3.2-4.5v-0.8h-0.1c-0.9,1.6-1.9,2.2-3.4,2.2c-2.9,0-5-2-5-8.3
					c0-3.3,0.8-8.1,4.9-8.1c1.4,0,2.7,0.7,3.5,2.2h0.1V329.8z M196,337.5c0,3.8,0.6,6.3,2.8,6.3c3.3,0,3.3-4,3.3-6.6v-0.1
					c0-3.1-0.6-6-3.1-6C196.1,331.2,196,335.4,196,337.5z"/>
				<path id="XMLID_689_" class="st0" d="M220.8,340.2v0.4c0,2.9-1.6,5.2-4.7,5.2c-2.9,0-5-2-5-8.2c0-3.3,0.9-8.2,5-8.2
					c5,0,4.8,4.8,4.9,8.4h-7.6v1c0,2,0.2,5.2,2.8,5.2c1.9,0,2.6-1.6,2.6-3.2c0-0.1,0-0.3,0-0.5H220.8z M218.6,335.9
					c-0.1-1.8,0-4.7-2.5-4.7c-2.6,0-2.6,2.9-2.7,4.7H218.6z"/>
				<path id="XMLID_687_" class="st0" d="M228.6,338.8v1.2c0,1.9,0.1,3.7,2.4,3.7s2.6-1.8,2.6-3.7v-15.7h2.3v15.8c0,4.4-2,5.6-5,5.6
					c-1.6,0-3.2-0.5-4-2c-0.6-1.2-0.8-2.7-0.8-3.9c0-0.4,0-0.8,0-1.1H228.6z"/>
				<path id="XMLID_684_" class="st0" d="M248.4,345.8c-3.4,0-5.6-2-5.6-8.7c0-4.7,1.7-7.7,5.6-7.7c3.8,0,5.6,3,5.6,7.7
					C254,343.8,251.8,345.8,248.4,345.8z M248.4,331.2c-2.3,0-3.3,1.8-3.3,6.5c0,3.7,0.7,6.2,3.3,6.2c2.6,0,3.3-2.5,3.3-6.2
					C251.7,333,250.7,331.2,248.4,331.2z"/>
				<path id="XMLID_681_" class="st0" d="M269.7,340.2v0.4c0,2.9-1.6,5.2-4.7,5.2c-2.9,0-5-2-5-8.2c0-3.3,0.9-8.2,5-8.2
					c5,0,4.8,4.8,4.9,8.4h-7.6v1c0,2,0.2,5.2,2.8,5.2c1.9,0,2.6-1.6,2.6-3.2c0-0.1,0-0.3,0-0.5H269.7z M267.5,335.9
					c-0.1-1.8,0-4.7-2.5-4.7s-2.6,2.9-2.7,4.7H267.5z"/>
				<path id="XMLID_679_" class="st0" d="M285.3,324.3h13.2v2.1h-5.4v18.9h-2.3v-18.9h-5.4V324.3z"/>
				<path id="XMLID_677_" class="st0" d="M304.6,332.3L304.6,332.3c0.9-1.8,2.1-2.7,4-2.7c0.2,0,0.4,0,0.6,0v2.2
					c-0.3-0.1-0.6-0.1-0.9-0.1c-2.3,0-3.6,1.7-3.6,4.2v9.4h-2.2v-15.6h2.1V332.3z"/>
				<path id="XMLID_674_" class="st0" d="M324.6,345.3c-0.2,0-0.3,0.1-0.5,0.1c-0.2,0-0.4,0-0.6,0c-1.4,0-2-0.4-2.2-2.2h-0.1
					c-0.5,1.4-2,2.5-3.4,2.5c-3.1,0-4-1.7-4-4.6c0-0.6,0.1-2.8,2.2-3.8c1.3-0.6,4.4-1.7,4.7-2c0.4-0.3,0.4-0.8,0.4-1.3v-0.4
					c0-1.8-0.7-2.4-2.5-2.4c-1.9,0-2.3,0.8-2.3,2.5v0.2h-2v-0.3c0-3,1.6-4.3,4.6-4.3c3.9,0,4.2,2.8,4.2,3.9v9.5c0,0.4,0,0.8,0.4,0.9
					c0.2,0,0.3,0.1,0.5,0.1s0.3,0,0.5,0V345.3z M320.9,336.9c-1.1,0.6-2.3,1.1-3.5,1.7c-1,0.5-1.4,1.6-1.4,2.7
					c0,1.6,0.4,2.6,2.2,2.6c0.8,0,2.7-0.6,2.7-3.2V336.9z"/>
				<path id="XMLID_671_" class="st0" d="M338.4,324.3h2.2v21h-2.1v-2h-0.1c-1,1.8-1.9,2.5-3.8,2.5c-4.3,0-4.6-5.3-4.6-7.5v-1.4
					c0-4.3,1.5-7.5,4.7-7.5c1.6,0,2.5,0.7,3.6,2h0.1V324.3z M338.4,337.3c0-2.1-0.1-6.1-3-6.1c-1.8,0-3.1,1.5-3.1,6.2
					c0,3.4,0.1,6.4,3.1,6.4c2.3,0,2.9-2.9,2.9-4.6V337.3z"/>
				<path id="XMLID_668_" class="st0" d="M348.1,327.1v-2.8h2.2v2.8H348.1z M348.1,345.3v-15.6h2.2v15.6H348.1z"/>
				<path id="XMLID_666_" class="st0" d="M359.8,331.5L359.8,331.5c1.1-1.3,2.3-2.1,3.9-2.1c2.3,0,3.8,1.2,3.8,4v12h-2.2v-11.4
					c0-1.6-0.5-2.7-2.3-2.7c-0.8,0-1.6,0.3-2.2,0.9c-0.9,0.8-1,1.7-1,2.8v10.4h-2.2v-15.6h2.2V331.5z"/>
				<path id="XMLID_663_" class="st0" d="M382.7,329.8h2.2v13.7c0,1.9-0.1,3.4-1.2,5c-1,1.5-2.6,2.2-4.3,2.2c-2.5,0-4.3-1.1-4.6-3.8
					h2.2c0.2,1.4,1.1,1.9,2.4,1.9c3.1,0,3.2-2.7,3.2-4.5v-0.8h-0.1c-0.9,1.6-1.9,2.2-3.4,2.2c-2.9,0-5-2-5-8.3
					c0-3.3,0.8-8.1,4.9-8.1c1.4,0,2.7,0.7,3.5,2.2h0.1V329.8z M376.5,337.5c0,3.8,0.6,6.3,2.8,6.3c3.3,0,3.3-4,3.3-6.6v-0.1
					c0-3.1-0.6-6-3.1-6C376.7,331.2,376.5,335.4,376.5,337.5z"/>
				<path id="XMLID_661_" class="st0" d="M411.9,329.8c0-0.1,0-0.3,0-0.4c0-2-1.2-3.4-3.4-3.4c-3.4,0-3.8,2.1-3.8,3.8
					c0,1.5,0.6,2.4,2,2.9l3.3,1.3c4,1.5,4.7,2.9,4.7,5.7c0,4-2.5,6.3-6.5,6.3c-2.1,0-4.5-0.6-5.7-3.3c-0.4-1-0.4-2.7-0.4-3.8h2.3
					v0.6c0,2.7,0.7,4.4,4,4.4c2.4,0,4-1.2,4-3.7c0-3.2-1.3-3.2-3.4-4c-1.1-0.4-3-1-4.1-1.6c-2-1-2.5-2.7-2.5-4.8
					c0-3.5,2.4-5.7,5.9-5.7c3.7,0,6,1.8,6,5.4c0,0.2,0,0.3,0,0.5H411.9z"/>
				<path id="XMLID_659_" class="st0" d="M424.2,329.8h2.6v1.9h-2.6v11c0,0.4,0.1,0.8,1,0.8h1.5v1.9h-2.6c-1.2,0-2.1-0.3-2.1-2.5
					v-11.1h-2.2v-1.9h2.2v-4.2h2.2V329.8z"/>
				<path id="XMLID_656_" class="st0" d="M437.8,345.8c-3.4,0-5.6-2-5.6-8.7c0-4.7,1.7-7.7,5.6-7.7c3.8,0,5.6,3,5.6,7.7
					C443.4,343.8,441.2,345.8,437.8,345.8z M437.8,331.2c-2.3,0-3.3,1.8-3.3,6.5c0,3.7,0.7,6.2,3.3,6.2c2.6,0,3.3-2.5,3.3-6.2
					C441.1,333,440.1,331.2,437.8,331.2z"/>
				<path id="XMLID_654_" class="st0" d="M451.7,337.5v0.7c0,2,0.1,5.7,3,5.7c2.4,0,2.6-2.1,2.7-4h2.1c-0.1,3-1.2,5.9-4.7,5.9
					c-4.8,0-5.4-4-5.4-8c0-3.8,0.6-8.4,5.4-8.4c3.1,0,4.6,2.4,4.6,5.2v0.1h-2.1c0-1.7-0.5-3.4-2.6-3.4
					C451.8,331.2,451.7,335.1,451.7,337.5z"/>
				<path id="XMLID_652_" class="st0" d="M465.9,345.3v-21h2.2V337h0.1l5.3-7.3h2.6l-4.8,6l5,9.5h-2.6l-3.9-7.8l-1.7,2.2v5.5H465.9z
					"/>
				<path id="XMLID_650_" class="st0" d="M488.2,333.9v-0.3c0-1.6-0.7-2.4-2.5-2.4c-1.6,0-2.5,0.7-2.5,2.4c0,2,1.7,2.3,3.2,2.9
					c2.2,1,4.5,1.6,4.5,4.5c0,2.9-2,4.8-5.2,4.8h-0.2c-1.3,0-3-0.5-3.8-1.6c-0.8-1.1-0.9-2-0.9-3v-0.3h2.1v0.3
					c0,1.7,0.7,2.8,2.6,2.8c1.8,0,3-0.7,3-2.6c0-2.2-2.2-2.4-3.8-3.1c-2.4-0.9-3.8-1.7-3.8-4.4c0-2.7,1.9-4.4,4.6-4.4
					c3,0,4.8,1.3,4.8,4.5v0.1H488.2z"/>
			</g>
		</g>
		<g id="XMLID_104_">
			<g id="XMLID_319_">
				<g id="XMLID_322_">
					<g id="XMLID_323_">
						<path id="XMLID_339_" class="st1" d="M166.5,313.8h-6.7v-26.3h-9.6v-5.6h25.9v5.6h-9.6V313.8z"/>
						<path id="XMLID_336_" class="st1" d="M178.3,281.9h16.1c8.5,0,10,6.3,10,9c0,3.5-1.8,6.5-4.9,7.6c2.6,1.2,4,2.1,4,8.1
							c0,4.7,0,5.8,1.4,6.4v0.8h-7.4c-0.4-1.5-0.7-3.2-0.7-6.4c0-4.4-0.3-6-5.2-6h-6.9v12.5h-6.5V281.9z M192.6,295.9
							c3.5,0,5.2-1.2,5.2-4.4c0-1.7-0.8-4.2-4.7-4.2h-8.3v8.5H192.6z"/>
						<path id="XMLID_333_" class="st1" d="M213.1,313.8h-7l11.4-31.9h7.7l11.2,31.9h-7.2l-2-6.6h-11.8L213.1,313.8z M217.1,301.7
							h8.1l-4-12.6h-0.1L217.1,301.7z"/>
						<path id="XMLID_330_" class="st1" d="M238.9,281.9H253c10.7,0,13,9.2,13,15.2c0,6.8-2.7,16.7-13.2,16.7h-13.8V281.9z
							 M245.4,308.2h6.5c5.4,0,7.2-5.5,7.2-10.7c0-9.4-4.5-10.2-7.3-10.2h-6.4V308.2z"/>
						<path id="XMLID_328_" class="st1" d="M275.3,313.8h-6.7v-31.9h6.7V313.8z"/>
						<path id="XMLID_326_" class="st1" d="M299.2,281.9h6.2v31.9h-6.7l-13-22.7h-0.1v22.7h-6.2v-31.9h7l12.7,22.2h0.1V281.9z"/>
						<path id="XMLID_324_" class="st1" d="M325,296.6h13.3v17.2h-4.4l-0.7-4c-1.7,2-4.1,4.8-9.9,4.8c-7.7,0-14.7-5.5-14.7-16.7
							c0-8.7,4.8-16.9,15.5-16.9h0.1c9.8,0,13.6,6.4,14,10.7h-6.7c0-1.2-2.3-5.2-7-5.2c-4.8,0-9.2,3.3-9.2,11.5c0,8.7,4.8,11,9.3,11
							c1.5,0,6.4-0.6,7.7-7H325V296.6z"/>
					</g>
				</g>
				<rect id="XMLID_321_" y="295.1" class="st1" width="140.2" height="4"/>
				<rect id="XMLID_320_" x="346.4" y="295.1" class="st1" width="141.2" height="4"/>
			</g>
		</g>
	</g>
	<g id="XMLID_83_">
		<polygon id="XMLID_101_" class="st2" points="174.8,130.3 140.7,182.8 187.7,182.8 221.7,130.3 		"/>
		<polygon id="XMLID_98_" class="st3" points="221.7,130.3 255.8,182.8 208.8,182.8 174.8,130.3 		"/>
		<polygon id="XMLID_97_" class="st2" points="258.2,106.3 208.7,182.8 255.6,182.8 305.2,106.3 		"/>
		<polygon id="XMLID_94_" class="st3" points="305.2,106.3 354.8,182.8 307.8,182.8 258.2,106.3 		"/>
		<polygon id="XMLID_93_" class="st2" points="415.5,129.6 408,77.1 334.2,97.6 357,106.6 307.6,182.8 354.6,182.8 394.5,121.3 		
			"/>
		<g id="XMLID_84_">
			<g id="XMLID_86_">
				<g id="XMLID_29_">
					<path id="XMLID_31_" class="st3" d="M257.2,24.5c-29.3,0.3-60.2,14-76,52c-51-3.7-89.3,57.9-42.2,106.3
						c-69.9-35.8-37.2-124,28.7-125C187,18.7,223.8,0,259,0c33.8,0,65.7,18.1,79.4,54.4c16-2.1,39.6,8.6,50.3,26.5
						c0,0-34.6-19-65.7-4.3C313.6,39.3,285.9,24.2,257.2,24.5z"/>
					<path id="XMLID_30_" class="st3" d="M177.8,115.1c-9.8-27.3-8.9-49.2,3.4-68.4L218,34C218,34,169.7,59.5,177.8,115.1z"/>
				</g>
			</g>
			<path id="XMLID_85_" class="st3" d="M343.7,71.2c0,0-27.4,1.6-44.1,23.7c0,0,5.6-20.5,28.3-31.5"/>
		</g>
	</g>
</g>
</svg>
